<svg xmlns="http://www.w3.org/2000/svg" viewBox="0 0 747.12 275.58"><defs><style>.cls-1,.cls-18{fill:#fff;}.cls-1,.cls-15,.cls-6,.cls-7,.cls-9{stroke:#231f20;}.cls-1,.cls-15,.cls-16,.cls-18,.cls-19,.cls-20,.cls-22,.cls-6,.cls-7{stroke-miterlimit:10;}.cls-2{font-size:14px;}.cls-2,.cls-21,.cls-8{fill:#231f20;}.cls-2,.cls-21{font-family:PFDinTextPro-Regular, PF DinText Pro;}.cls-3{letter-spacing:-0.02em;}.cls-4{fill:#58595b;}.cls-5{letter-spacing:-0.02em;}.cls-12,.cls-13,.cls-14,.cls-15,.cls-16,.cls-19,.cls-20,.cls-22,.cls-6,.cls-7{fill:none;}.cls-20,.cls-7{stroke-dasharray:0.99 1.97;}.cls-9{fill:#d1d3d4;}.cls-12,.cls-13,.cls-14,.cls-9{stroke-linejoin:round;}.cls-10{letter-spacing:-0.03em;}.cls-11{fill:#f1f2f2;}.cls-12,.cls-13,.cls-14{stroke:#bcbec0;}.cls-13{stroke-dasharray:1.95 2.93;}.cls-14{stroke-dasharray:1.97 2.96;}.cls-15,.cls-16{stroke-width:0.5px;}.cls-16{stroke:#6d6e71;}.cls-17{fill:#6d6e71;}.cls-18,.cls-19,.cls-20{stroke:#58595b;}.cls-21{font-size:18px;}.cls-22{stroke:#939598;}</style></defs><g id="backgrounds"><rect class="cls-1" width="747.12" height="275.58"/></g><g id="Layer_1" data-name="Layer 1"><text class="cls-2" transform="translate(12.21 21.61)">Envi<tspan class="cls-3" x="24.15" y="0">r</tspan><tspan x="28.98" y="0">onmental assemblage </tspan><tspan class="cls-4"><tspan x="0" y="16.8">intensi</tspan><tspan class="cls-3" x="37.88" y="16.8">v</tspan><tspan x="43.93" y="16.8">e assemblage of hete</tspan><tspan class="cls-5" x="164.74" y="16.8">r</tspan><tspan x="169.57" y="16.8">ogeneous elements</tspan></tspan></text><text class="cls-2" transform="translate(41.47 242.19)">A m<tspan class="cls-3" x="22.95" y="0">o</tspan><tspan x="29.86" y="0">ving entity</tspan><tspan class="cls-4"><tspan x="7.3" y="16.8">intentionality</tspan></tspan></text><rect class="cls-1" x="74.68" y="103.02" width="22" height="80" rx="11"/><line class="cls-6" x1="48.69" y1="160.18" x2="49.19" y2="160.18"/><polyline class="cls-7" points="51.16 160.18 85.68 160.18 121.19 160.18"/><line class="cls-6" x1="122.17" y1="160.18" x2="122.67" y2="160.18"/><polygon class="cls-8" points="49.78 163.92 43.3 160.18 49.78 156.44 49.78 163.92"/><polygon class="cls-8" points="121.58 163.92 128.05 160.18 121.58 156.44 121.58 163.92"/><text class="cls-2" transform="translate(207 242.19)">A patch of g<tspan class="cls-3" x="67.2" y="0">r</tspan><tspan x="72.03" y="0">ound</tspan><tspan class="cls-4"><tspan x="33.77" y="16.8">space</tspan></tspan></text><polygon class="cls-9" points="257.22 113.1 317.38 145.77 257.22 188.94 197.05 145.77 257.22 113.1"/><text class="cls-2" transform="translate(395.27 242.19)">A fo<tspan class="cls-10" x="22.61" y="0">r</tspan><tspan x="27.3" y="0">ce field</tspan><tspan class="cls-4"><tspan x="12.4" y="16.8">physics</tspan></tspan></text><polygon class="cls-11" points="428.75 113.1 488.92 145.77 428.75 188.94 368.59 145.77 428.75 113.1"/><polyline class="cls-12" points="427.87 113.58 428.75 113.1 429.63 113.58"/><line class="cls-13" x1="432.21" y1="114.98" x2="486.75" y2="144.59"/><polyline class="cls-12" points="488.04 145.29 488.92 145.77 488.11 146.35"/><line class="cls-14" x1="485.7" y1="148.08" x2="430.77" y2="187.49"/><polyline class="cls-12" points="429.56 188.35 428.75 188.94 427.94 188.35"/><line class="cls-14" x1="425.53" y1="186.63" x2="370.6" y2="147.22"/><polyline class="cls-12" points="369.4 146.35 368.59 145.77 369.46 145.29"/><line class="cls-13" x1="372.04" y1="143.89" x2="426.59" y2="114.28"/><line class="cls-15" x1="400.47" y1="97.58" x2="400.47" y2="147.7"/><path class="cls-8" d="M398.07,144.28a.26.26,0,0,1,.35.08l2.05,3.22,2.06-3.22a.25.25,0,0,1,.34-.08.26.26,0,0,1,.08.35l-2.26,3.55a.27.27,0,0,1-.22.12.27.27,0,0,1-.21-.12L398,144.63a.25.25,0,0,1,0-.14A.26.26,0,0,1,398.07,144.28Z"/><line class="cls-15" x1="429.31" y1="97.58" x2="429.31" y2="147.7"/><path class="cls-8" d="M426.91,144.28a.25.25,0,0,1,.34.08l2.06,3.22,2.05-3.22a.26.26,0,0,1,.35-.08.25.25,0,0,1,.07.35l-2.26,3.55a.27.27,0,0,1-.21.12.24.24,0,0,1-.21-.12l-2.27-3.55a.25.25,0,0,1,0-.14A.25.25,0,0,1,426.91,144.28Z"/><line class="cls-15" x1="458.14" y1="97.58" x2="458.14" y2="147.7"/><path class="cls-8" d="M455.74,144.28a.26.26,0,0,1,.35.08l2.05,3.22,2.06-3.22a.24.24,0,0,1,.34-.08.26.26,0,0,1,.08.35l-2.27,3.55a.24.24,0,0,1-.21.12.27.27,0,0,1-.21-.12l-2.27-3.55a.35.35,0,0,1,0-.14A.26.26,0,0,1,455.74,144.28Z"/><line class="cls-15" x1="414.89" y1="97.58" x2="414.89" y2="147.7"/><path class="cls-8" d="M412.49,144.28a.26.26,0,0,1,.35.08l2.05,3.22,2.06-3.22a.24.24,0,0,1,.34-.08.26.26,0,0,1,.08.35l-2.27,3.55a.24.24,0,0,1-.21.12.27.27,0,0,1-.21-.12l-2.27-3.55a.35.35,0,0,1,0-.14A.26.26,0,0,1,412.49,144.28Z"/><line class="cls-15" x1="443.72" y1="97.58" x2="443.72" y2="147.7"/><path class="cls-8" d="M441.32,144.28a.26.26,0,0,1,.35.08l2.05,3.22,2.06-3.22a.25.25,0,0,1,.34-.08.26.26,0,0,1,.08.35l-2.26,3.55a.27.27,0,0,1-.22.12.27.27,0,0,1-.21-.12l-2.26-3.55a.25.25,0,0,1,0-.14A.26.26,0,0,1,441.32,144.28Z"/><text class="cls-2" transform="translate(597.97 242.19)">Unit-instance of <tspan x="-30.44" y="16.8">spatiotempo</tspan><tspan class="cls-3" x="41" y="16.8">r</tspan><tspan x="45.83" y="16.8">al experience</tspan></text><polygon class="cls-9" points="643.19 113.1 703.36 145.77 643.19 188.94 583.02 145.77 643.19 113.1"/><line class="cls-16" x1="614.36" y1="110.47" x2="614.36" y2="160.59"/><path class="cls-17" d="M612,157.17a.25.25,0,0,1,.34.08l2.06,3.22,2-3.22a.26.26,0,0,1,.35-.08.24.24,0,0,1,.07.34l-2.26,3.56a.27.27,0,0,1-.21.12.24.24,0,0,1-.21-.12l-2.27-3.56a.2.2,0,0,1,0-.13A.25.25,0,0,1,612,157.17Z"/><line class="cls-16" x1="643.19" y1="110.47" x2="643.19" y2="160.59"/><path class="cls-17" d="M640.79,157.17a.26.26,0,0,1,.35.08l2.05,3.22,2.06-3.22a.25.25,0,1,1,.42.26l-2.27,3.56a.24.24,0,0,1-.21.12.27.27,0,0,1-.21-.12l-2.27-3.56a.28.28,0,0,1,0-.13A.26.26,0,0,1,640.79,157.17Z"/><line class="cls-16" x1="672.02" y1="110.47" x2="672.02" y2="160.59"/><path class="cls-17" d="M669.62,157.17a.26.26,0,0,1,.35.08l2,3.22,2.06-3.22a.25.25,0,1,1,.42.26l-2.26,3.56a.27.27,0,0,1-.22.12.27.27,0,0,1-.21-.12l-2.26-3.56a.2.2,0,0,1,0-.13A.26.26,0,0,1,669.62,157.17Z"/><line class="cls-16" x1="628.77" y1="110.47" x2="628.77" y2="160.59"/><path class="cls-17" d="M626.37,157.17a.26.26,0,0,1,.35.08l2,3.22,2.06-3.22a.25.25,0,1,1,.42.26L629,161.07a.27.27,0,0,1-.22.12.27.27,0,0,1-.21-.12l-2.26-3.56a.2.2,0,0,1,0-.13A.26.26,0,0,1,626.37,157.17Z"/><line class="cls-16" x1="657.61" y1="110.47" x2="657.61" y2="160.59"/><path class="cls-17" d="M655.21,157.17a.25.25,0,0,1,.34.08l2.06,3.22,2-3.22a.26.26,0,0,1,.35-.08.24.24,0,0,1,.07.34l-2.26,3.56a.27.27,0,0,1-.21.12.24.24,0,0,1-.21-.12l-2.27-3.56a.2.2,0,0,1,0-.13A.25.25,0,0,1,655.21,157.17Z"/><rect class="cls-18" x="632.19" y="65.77" width="22" height="80" rx="11"/><line class="cls-19" x1="606.2" y1="122.94" x2="606.7" y2="122.94"/><polyline class="cls-20" points="608.67 122.94 643.19 122.94 678.7 122.94"/><line class="cls-19" x1="679.68" y1="122.94" x2="680.18" y2="122.94"/><polygon class="cls-4" points="607.29 126.68 600.82 122.94 607.29 119.2 607.29 126.68"/><polygon class="cls-4" points="679.09 126.68 685.57 122.94 679.09 119.2 679.09 126.68"/><text class="cls-21" transform="translate(158.75 145.36)">+</text><text class="cls-21" transform="translate(338.48 145.36)">+</text><text class="cls-21" transform="translate(535.55 145.36)">=</text><rect class="cls-22" x="26.63" y="65.77" width="487.33" height="142.57"/><circle class="cls-22" cx="643.19" cy="133.44" r="77.06"/></g></svg>