<svg xmlns="http://www.w3.org/2000/svg" viewBox="0 0 747.12 360.33"><defs><style>.cls-1,.cls-6{fill:#fff;}.cls-1,.cls-18,.cls-2,.cls-3,.cls-4,.cls-5{stroke:#231f20;stroke-miterlimit:10;}.cls-2{fill:#fff200;}.cls-3{fill:#fbb040;}.cls-4{fill:#ef4136;}.cls-5{fill:none;}.cls-7,.cls-8{fill:#231f20;}.cls-8{font-size:14px;font-family:PFDinTextPro-Regular, PF DinText Pro;}.cls-9{letter-spacing:-0.05em;}.cls-10{letter-spacing:-0.02em;}.cls-11{fill:#58595b;}.cls-12{letter-spacing:-0.02em;}.cls-13{letter-spacing:0em;}.cls-14{letter-spacing:-0.02em;}.cls-15{letter-spacing:-0.05em;}.cls-16{letter-spacing:0em;}.cls-17{letter-spacing:-0.03em;}.cls-18{fill:#d1d3d4;stroke-dasharray:3 2;}</style></defs><g id="backgrounds"><rect class="cls-1" width="747.12" height="360.33"/></g><g id="Layer_1" data-name="Layer 1"><circle class="cls-2" cx="166.38" cy="204.17" r="139.5"/><circle class="cls-3" cx="166.38" cy="204.17" r="93"/><circle class="cls-4" cx="166.38" cy="204.17" r="46.5"/><line class="cls-5" x1="169.41" y1="89.67" x2="358.04" y2="89.67"/><path class="cls-6" d="M169.57,92.49a2.82,2.82,0,1,1,2.82-2.82A2.82,2.82,0,0,1,169.57,92.49Z"/><path class="cls-7" d="M169.57,92.86a3.2,3.2,0,1,0-3.19-3.19,3.19,3.19,0,0,0,3.19,3.19Zm0-5.64a2.45,2.45,0,1,1-2.45,2.45,2.45,2.45,0,0,1,2.45-2.45Z"/><text class="cls-8" transform="translate(384.04 92.55)"><tspan class="cls-9">T</tspan><tspan x="6.1" y="0">op-le</tspan><tspan class="cls-10" x="35.91" y="0">v</tspan><tspan x="41.96" y="0">el design</tspan><tspan class="cls-11"><tspan x="0" y="16.8">na</tspan><tspan class="cls-9" x="13.83" y="16.8">r</tspan><tspan class="cls-10" x="18.24" y="16.8">r</tspan><tspan x="23.07" y="16.8">ati</tspan><tspan class="cls-12" x="37.27" y="16.8">v</tspan><tspan class="cls-13" x="43.32" y="16.8">e content, e</tspan><tspan class="cls-12" x="109.34" y="16.8">v</tspan><tspan class="cls-13" x="115.39" y="16.8">ents, visual style, etc.</tspan></tspan></text><text class="cls-8" transform="translate(12.21 18.16)"><tspan class="cls-10">V</tspan><tspan x="7.32" y="0">irtual cosmogony</tspan><tspan class="cls-11"><tspan x="0" y="16.8">la</tspan><tspan class="cls-10" x="10.15" y="16.8">y</tspan><tspan x="16" y="16.8">ers of spatial-tempo</tspan><tspan class="cls-14" x="131.5" y="16.8">r</tspan><tspan x="136.33" y="16.8">al virtual-worldbuilding</tspan></tspan></text><line class="cls-5" x1="169.41" y1="136.77" x2="358.04" y2="136.77"/><path class="cls-6" d="M169.57,139.59a2.82,2.82,0,1,1,2.82-2.82A2.82,2.82,0,0,1,169.57,139.59Z"/><path class="cls-7" d="M169.57,140a3.2,3.2,0,1,0-3.19-3.2,3.2,3.2,0,0,0,3.19,3.2Zm0-5.64a2.45,2.45,0,1,1-2.45,2.44,2.44,2.44,0,0,1,2.45-2.44Z"/><text class="cls-8" transform="translate(384.04 139.72)">Spatial design (le<tspan class="cls-10" x="96.87" y="0">v</tspan><tspan x="102.91" y="0">el design)</tspan><tspan class="cls-11"><tspan x="0" y="16.8">a</tspan><tspan class="cls-9" x="6.75" y="16.8">r</tspan><tspan class="cls-10" x="11.16" y="16.8">r</tspan><tspan x="15.99" y="16.8">angement of objects in space, envi</tspan><tspan class="cls-12" x="211" y="16.8">r</tspan><tspan x="215.83" y="16.8">onmental na</tspan><tspan class="cls-15" x="286.8" y="16.8">r</tspan><tspan class="cls-12" x="291.21" y="16.8">r</tspan><tspan x="296.04" y="16.8">ati</tspan><tspan class="cls-12" x="310.23" y="16.8">v</tspan><tspan class="cls-16" x="316.28" y="16.8">e, etc. </tspan></tspan></text><line class="cls-5" x1="169.41" y1="174.02" x2="358.04" y2="174.02"/><path class="cls-6" d="M169.57,176.84a2.82,2.82,0,1,1,2.82-2.82A2.82,2.82,0,0,1,169.57,176.84Z"/><path class="cls-7" d="M169.57,177.22a3.2,3.2,0,1,0-3.19-3.2,3.2,3.2,0,0,0,3.19,3.2Zm0-5.64a2.45,2.45,0,1,1-2.45,2.44,2.44,2.44,0,0,1,2.45-2.44Z"/><text class="cls-8" transform="translate(384.04 175.79)">Spatial-tempo<tspan class="cls-10" x="81.1" y="0">r</tspan><tspan x="85.93" y="0">al world constitution </tspan><tspan class="cls-11"><tspan x="0" y="16.8">topology, geometry, physics</tspan></tspan></text><text class="cls-8" transform="translate(384.04 235.85)">Intentionality (being-in-the-world)<tspan class="cls-11"><tspan class="cls-10" x="0" y="16.8">v</tspan><tspan x="6.05" y="16.8">ertically integ</tspan><tspan class="cls-10" x="82.61" y="16.8">r</tspan><tspan x="87.44" y="16.8">ated technological intentionality</tspan></tspan></text><text class="cls-8" transform="translate(384.04 272.85)">Interface for dynamic inte<tspan class="cls-12" x="144.44" y="0">r</tspan><tspan x="149.27" y="0">action</tspan><tspan class="cls-11"><tspan x="0" y="16.8">pe</tspan><tspan class="cls-17" x="13.72" y="16.8">r</tspan><tspan x="18.41" y="16.8">ception and enaction of the world</tspan></tspan></text><rect class="cls-18" x="166.38" y="194.67" width="139.5" height="19.71" rx="9.85"/><polyline class="cls-5" points="276.78 205.56 276.78 233.67 358.04 233.67"/><path class="cls-6" d="M274,205.72a2.82,2.82,0,1,1,2.82,2.82A2.82,2.82,0,0,1,274,205.72Z"/><path class="cls-7" d="M273.58,205.72a3.2,3.2,0,1,0,3.2-3.2,3.2,3.2,0,0,0-3.2,3.2Zm5.64,0a2.45,2.45,0,1,1-2.44-2.45,2.44,2.44,0,0,1,2.44,2.45Z"/><polyline class="cls-5" points="236.13 214.09 236.13 270.43 358.04 270.43"/><path class="cls-6" d="M233.31,214.25a2.82,2.82,0,1,1,2.81,2.82A2.81,2.81,0,0,1,233.31,214.25Z"/><path class="cls-7" d="M232.93,214.25a3.2,3.2,0,1,0,3.19-3.19,3.2,3.2,0,0,0-3.19,3.19Zm5.64,0a2.45,2.45,0,1,1-2.45-2.44,2.45,2.45,0,0,1,2.45,2.44Z"/></g></svg>